<svg xmlns="http://www.w3.org/2000/svg" viewBox="0 0 512 512">
  <rect width="512" height="512" rx="120" fill="#7c8b53"/>
  <g fill="#c8a15a">
    <path d="M256 96c52 34 91 93 96 160 4 46-9 95-39 135l-18 24-39-34 14-47-48-48-47 14-34-39 24-18c40-30 89-43 135-39 67 5 126 44 160 96-22 6-48 10-74 10-70 0-128-58-128-128 0-26 4-52 10-74z" transform="translate(-96 -96) scale(1.3333)"/>
  </g>
  <g fill="#c8a15a">
    <path d="M266 96c70 18 124 72 142 142-34 14-72 16-110 3l-44 44c13 38 11 76-3 110-70-18-124-72-142-142 34-14 72-16 110-3l44-44c-13-38-11-76 3-110z" opacity="0.95"/>
    <circle cx="308" cy="204" r="34" fill="#7c8b53"/>
    <path d="M175 338l-52 51c-12 12-12 31 0 43l9 9c12 12 31 12 43 0l51-52-51-51z"/>
    <path d="M337 286l51 51c12 12 31 12 43 0l9-9c12-12 12-31 0-43l-52-51-51 52z"/>
    <path d="M242 334l-54 54c-18 18-27 42-24 68l2 18 18 2c26 3 50-6 68-24l54-54-64-64z"/>
    <path d="M223 354l-18 18c-9 9-14 22-12 35l1 7 7 1c13 2 26-3 35-12l18-18-31-31z" fill="#7c8b53" opacity="0.75"/>
    <path d="M237 229l46 46 31-31-46-46-31 31z" opacity="0.88"/>
    <path d="M160 420c0-28 12-54 33-73l35-32 64 64-32 35c-19 21-45 33-73 33h-27v-27z" opacity="0.25"/>
  </g>
</svg>
