<svg xmlns="http://www.w3.org/2000/svg" viewBox="0 0 1100 520" role="img" aria-label="Путь кофе от зерна до чашки"><defs><style>.bg{fill:#fbfcf6}.card{fill:#fffef8;stroke:#d5dec7;stroke-width:2}.accent{fill:#5f6f45}.accent2{fill:#8aa36c}.soft{fill:#eef4e6}.line{stroke:#5f6f45;stroke-width:4;stroke-linecap:round;stroke-linejoin:round;fill:none}.thin{stroke:#8aa36c;stroke-width:2;stroke-linecap:round;fill:none}.txt{font-family:Inter,Arial,sans-serif;font-size:22px;fill:#2f3328;font-weight:700}.small{font-size:16px;fill:#68725d;font-weight:700}.title{font-size:28px;font-weight:900;fill:#2f3328}.white{fill:#fffef8}</style></defs><rect class="bg" x="0" y="0" width="1100" height="520" rx="38"/><text class="title" x="54" y="60">Путь кофе: от ягоды до чашки</text><g transform="translate(55 120)"><rect class="card" width="150" height="250" rx="28"/><circle class="accent2" cx="75" cy="85" r="42"/><path class="line" d="M75 48 C95 75 100 105 75 128 C50 105 55 75 75 48"/><text class="txt" x="75" y="170" text-anchor="middle">Ягода</text><text class="small" x="75" y="200" text-anchor="middle">созревание</text></g><path class="thin" d="M220 245 H305"/><g transform="translate(320 120)"><rect class="card" width="150" height="250" rx="28"/><ellipse class="accent" cx="75" cy="92" rx="38" ry="54"/><path class="thin" d="M55 75 C75 95 78 112 95 128"/><text class="txt" x="75" y="170" text-anchor="middle">Зерно</text><text class="small" x="75" y="200" text-anchor="middle">обработка</text></g><path class="thin" d="M485 245 H570"/><g transform="translate(585 120)"><rect class="card" width="150" height="250" rx="28"/><circle class="soft" cx="75" cy="93" r="53"/><path class="line" d="M52 80 C85 55 105 70 98 106 C84 126 58 118 52 80"/><text class="txt" x="75" y="170" text-anchor="middle">Обжарка</text><text class="small" x="75" y="200" text-anchor="middle">вкус и аромат</text></g><path class="thin" d="M750 245 H835"/><g transform="translate(850 120)"><rect class="card" width="190" height="250" rx="28"/><path class="line" d="M58 70 h78 l-12 74 h-54 z"/><path class="thin" d="M70 144 h54"/><path class="accent2" d="M70 166 h54 a32 32 0 0 1 -54 0"/><text class="txt" x="95" y="200" text-anchor="middle">Чашка</text><text class="small" x="95" y="230" text-anchor="middle">экстракция</text></g></svg>